PathFileType	4	(X/Y/Z)	Patient4_TMGait_0pt5_01_left_13.trc.trc
DataRate	CameraRate	NumFrames	NumMarkers	Units	OrigDataRate	OrigDataStartFrame	OrigNumFrames
74.866310160428	74.866310160428	5	33	mm	74.866310160428	106	       141
Frame#	Time	L.ASIS			Sacral			L.Shoulder			Chest			R.Shoulder			Neck			R.ASIS			R.Thigh.Superior			R.Thigh.Lateral			R.Thigh.Inferior			R.Patella			L.Thigh.Superior			L.Thigh.Lateral			L.Thigh.Inferior			L.Patella			L.Shank.Superior			L.Shank.Lateral			L.Shank.Inferior			R.Shank.Superior			R.Shank.Lateral			R.Shank.Inferior			R.Heel			R.Midfoot.Superior			R.Midfoot.Lateral			R.Toe			L.Heel			L.Midfoot.Lateral			L.Midfoot.Superior			L.Toe			L.Elbow			L.Wrist			R.Elbow			R.Wrist			
		X1	Y1	Z1	X2	Y2	Z2	X3	Y3	Z3	X4	Y4	Z4	X5	Y5	Z5	X6	Y6	Z6	X7	Y7	Z7	X8	Y8	Z8	X9	Y9	Z9	X10	Y10	Z10	X11	Y11	Z11	X12	Y12	Z12	X13	Y13	Z13	X14	Y14	Z14	X15	Y15	Z15	X16	Y16	Z16	X17	Y17	Z17	X18	Y18	Z18	X19	Y19	Z19	X20	Y20	Z20	X21	Y21	Z21	X22	Y22	Z22	X23	Y23	Z23	X24	Y24	Z24	X25	Y25	Z25	X26	Y26	Z26	X27	Y27	Z27	X28	Y28	Z28	X29	Y29	Z29	X30	Y30	Z30	X31	Y31	Z31	X32	Y32	Z32	X33	Y33	Z33	

106	18.732500000000	765.952221633510	971.753606156354	364.153301685859	565.662020615503	1010.290525208098	538.992966783052	720.367489666916	1444.759028044246	362.303204449617	841.090002208978	1366.647095600452	507.261810963351	779.833887468749	1433.340858053704	693.844866987294	741.109211261546	1500.127653497092	514.583772618056	801.822814857475	941.292137398762	635.583392120262	829.595140288470	738.278632251090	601.888809588140	744.647900702162	633.097108513841	662.455114251779	814.948908514227	578.109604966769	578.798901917463	809.796893958221	490.725313931408	582.376858841424	853.943495687057	789.081778470730	386.945262746585	806.281683508260	661.526605205593	313.265368744497	909.939711622696	600.153177963046	371.160489686321	930.002220182067	519.215526656001	364.842328251484	887.135277522819	444.493481896513	355.128018567105	772.509509780637	354.865321689008	303.436623477695	810.160823310199	228.827680785578	355.945690160501	781.066000459450	403.111037822882	588.481794224253	708.177791358840	299.094659631799	646.286508560946	749.090348148907	205.536810260864	581.062899199848	612.552262054475	42.651286968220	544.120711372825	783.234990480998	96.927745242048	584.929861581991	693.803610346111	36.211494044315	621.602465835979	902.141438325331	44.549883028297	616.312149249889	659.974005706501	91.995224507024	390.186195396026	729.909684350928	79.232646386199	308.095042633602	822.411327536151	127.716399809953	331.049506983104	938.029022901097	59.853715048069	298.019271526391	647.713594548784	1092.630014766500	256.732564578941	681.364480159859	834.817549647329	241.733710558259	842.614813075174	1093.564248364047	812.369364627336	1058.266674488005	955.283224139009	769.899684992868	
107	18.745857142857	764.013594726037	972.181558287274	364.733201543641	564.520986555204	1011.057557629950	540.752513728777	719.161592556652	1444.852858682957	363.299779643305	840.955317391726	1366.406788405785	507.152986541565	781.633839829578	1433.474690880276	694.213361563348	741.350036614705	1500.183589474818	515.346907493625	801.183166494244	941.075765192046	635.959878222837	826.553936263096	737.542851109848	601.894247615615	740.780512884334	633.047905838100	663.138403277353	809.796554267280	577.385125692423	579.115584915352	803.768507878147	490.426052873399	582.778347725193	851.768434147825	789.655750959482	387.999616035593	804.657357586421	662.323877828672	313.519073324407	907.294526297990	600.826314946548	372.922811320405	929.024270984525	522.365604696488	366.370801846087	890.799542285454	447.367289791372	355.600355942636	783.713299421499	350.060023460354	302.252624514507	830.008524828089	226.648751977681	354.886897441943	774.984720521132	402.928603098328	588.792688107937	701.959614758334	299.016618179031	646.582888333295	742.622943257297	205.443139416452	581.183375434429	605.836711353753	42.618463474767	544.139913596582	776.477653767767	96.861578496027	584.895558805828	687.071074615042	36.191487688305	621.601310663781	895.380766047952	44.522477599621	616.335745007214	690.011486447833	79.021717803181	387.424583875054	761.641735405683	71.560488619099	306.010183632084	850.183374908171	126.473432100992	329.893202349529	970.755674949582	67.211860871015	298.023095511105	639.257419471889	1094.236418666617	258.606469668494	663.271560336809	835.698829489998	243.412744852033	853.028415562189	1096.312471976748	812.837796118775	1076.005990657096	972.371491511956	766.184876823415	
108	18.759214285714	762.238278843717	972.365751117141	365.203845036986	563.532626810204	1011.683261731030	542.392814534929	718.036133262131	1444.870432202363	364.178044619436	840.825458377348	1366.069648657547	506.958844884250	783.325942752112	1433.451919462924	694.453067214065	741.566084617221	1500.125722485329	516.010694692447	800.638043574195	940.816021663920	636.270430891233	823.684752376763	736.768077710784	601.968877913542	737.071076722240	632.943513733961	663.820632980940	804.839486761151	576.640753663296	579.471318579405	797.960621807098	490.087237914222	583.219220019490	849.225088102941	789.585208661877	389.101441733653	802.613738759962	662.712584976855	313.563293171635	904.044737361809	600.869262154045	374.651049327036	927.341051464159	525.028832868378	367.878083178680	893.735990774212	450.149213705361	356.073850318458	794.763638444811	345.690334973196	301.054696765089	849.364949517591	225.576107924238	354.078011408750	769.045012807819	402.702550476804	589.105684689310	695.870883493860	298.915948356631	646.908375551512	736.200442407837	205.310530499589	581.305609263054	599.116446815846	42.585626744807	544.179683736036	769.704683539274	96.782612650481	584.853255308701	680.333122424824	36.166396733183	621.609810708846	888.619215979264	44.471457847714	616.356063499574	720.089643298252	68.148107045557	384.903518727138	793.296910467463	65.700409203335	304.400734619800	877.493953734875	126.653614246168	329.237008159150	1002.402012747658	75.903904640607	299.056253956094	630.960335169933	1096.010187039115	260.198014475153	646.132228922994	837.111682769582	245.014559177473	863.127670196367	1099.070652703291	812.884459992136	1092.417411243540	989.912682451510	762.042051112732	
109	18.772571428571	760.618675137819	972.319961607168	365.565866548675	562.747590944982	1012.134468620705	543.931069668577	716.991012782315	1444.819977124418	364.932675008471	840.689839490296	1365.654642252890	506.690459298196	784.873442922931	1433.290647580221	694.570785211161	741.746621907879	1499.964713374183	516.569708345808	800.205553412240	940.520269978986	636.514263299097	821.014738658811	735.961556498735	602.107112681460	733.538982321543	632.786001045688	664.481300432249	800.108206105350	575.880265694919	579.854220317206	792.395485476958	489.703266720690	583.673812747316	846.397473673200	788.964014458269	390.192807578907	800.266562262630	662.757909583039	313.397473459956	900.421120325179	600.421032228076	376.224525841195	925.160327899025	527.263382270083	369.275617250660	896.045455878234	452.854571415834	356.502181187745	805.502719852003	341.909274540229	299.904186893770	867.916641459303	225.651745105048	353.528036267870	763.265501508861	402.432352466978	589.406209199274	689.924538184478	298.798669613191	647.250552962552	729.833023358550	205.143331071868	581.424648821930	592.390806024269	42.556644733967	544.236121292117	762.921555124492	96.695727052802	584.807564000938	673.591274193679	36.138274223423	621.628513201889	881.860346134115	44.401402744979	616.373708655699	749.582539146192	59.606320916523	382.766569637693	824.223641798333	61.727940006525	303.351769042263	903.857141428938	128.219631237131	329.069708599942	1032.431363422071	85.663017605541	301.018109248725	622.895443271711	1097.927923245571	261.536348460526	630.025802744557	838.938534446360	246.559940936581	872.905242247638	1101.824598132738	812.498426924442	1107.446854072583	1007.742633293815	757.504744477216	
110	18.785928571429	759.146110702723	972.072308988541	365.818804582050	562.203955224978	1012.385643238655	545.378550881038	716.019147263342	1444.711101560792	365.559857761237	840.537179845920	1365.185487209922	506.357077533511	786.245794415690	1433.016312680162	694.573086224101	741.878831726869	1499.714500973216	517.018390790881	799.900343319332	940.195543554063	636.684985068969	818.560801511670	735.130695417551	602.286436200317	730.199771967135	632.579398192486	665.094870584489	795.623272931235	575.108061944043	580.242208218264	787.086419780446	489.269593092108	584.109348890951	843.411211589993	787.922657118427	391.205910131743	797.749591948326	662.528910445036	313.052764259196	896.677464744527	599.635483959033	377.542732589112	922.708952181879	529.132740788799	370.493166003335	897.849100433494	455.473754357973	356.850770953243	815.745396272070	338.802053496531	298.872279057336	885.353526134643	226.795576160153	353.223134466106	757.659543269119	402.118855263534	589.676033407676	684.127448234777	298.672339492866	647.591726683543	723.529350904719	204.947495222985	581.533551591147	585.659933150350	42.535650834122	544.303594298154	756.135363736841	96.606847224628	584.763699225962	666.847129243772	36.109505507727	621.655905127909	875.107092371237	44.316865093437	616.389434433001	777.830203239964	53.431448261742	381.135113919006	853.730558361817	59.547922087522	302.896409224949	928.780987332337	130.988372381610	329.325791423432	1060.340674670832	96.080910038670	303.687690637463	615.127498567853	1099.959369251600	262.654400071965	615.005825040227	841.065493678377	248.057893442391	882.348240521097	1104.569723989382	811.674530070174	1121.059979801319	1025.693839229641	752.608658740671	
